<svg xmlns="http://www.w3.org/2000/svg" viewBox="0 0 44.41 44.41"><defs><style>.cls-1{fill:#363795;}.cls-2{fill:#fff;}</style></defs><title>intoud</title><g id="Layer_2" data-name="Layer 2"><g id="Layer_1-2" data-name="Layer 1"><circle class="cls-1" cx="22.21" cy="22.21" r="22.21"/><path class="cls-2" d="M29.17,19.47A11,11,0,0,0,22,11.33a2.75,2.75,0,0,0-3.63,2.6v.5A2.9,2.9,0,0,0,20.14,17a4.94,4.94,0,0,1,3.19,3.68l.8,3.86a.71.71,0,0,0,.64.57l3.93.31a1.47,1.47,0,0,1,1.21,1.34,1.25,1.25,0,0,1-1.32,1.31H17.9a2.78,2.78,0,0,1-2.77-2.77V22.57a2.75,2.75,0,0,0-2.75-2.75h-.47a2.75,2.75,0,0,0-2.75,2.75v2.72A8.77,8.77,0,0,0,17.9,34H28.37a7.46,7.46,0,0,0,7.26-5.47A7.35,7.35,0,0,0,29.17,19.47Z"/><rect class="cls-2" x="8.54" y="10.39" width="7" height="7" rx="3.13"/></g></g></svg>