<?xml version="1.0" encoding="utf-8"?>
<!-- Generator: Adobe Illustrator 23.0.1, SVG Export Plug-In . SVG Version: 6.00 Build 0)  -->
<svg version="1.1" id="Layer_1" xmlns="http://www.w3.org/2000/svg" xmlns:xlink="http://www.w3.org/1999/xlink" x="0px" y="0px"
	 viewBox="0 0 400 230" style="enable-background:new 0 0 400 230;" xml:space="preserve">
<style type="text/css">
	.st0{fill:#FFDA3F;}
	.st1{fill:#FFFFFF;}
	.st2{fill:#231F20;}
	.st3{fill:#D1D3D4;}
</style>
<g id="_88_knowledge">
	<path class="st0" d="M154.3,169.9c-23.6,12-23,35.1-23,35.1l129.3,22.9c0,0-2.2-12.1-32.9-34.2
		C201.4,174.8,169.1,162.4,154.3,169.9z"/>
	<path class="st1" d="M251.7,114.7c0,0,11.6,22.6,8.3,26.6c-3.4,4-12.6,0.1-12.6,0.1"/>
	<path class="st2" d="M255,143.7c-2.7-0.1-5.4-0.7-7.9-1.8c-0.2-0.1-0.3-0.4-0.2-0.6c0.1-0.2,0.3-0.3,0.6-0.2c0.1,0,9,3.8,12.1,0
		c2.6-3.1-5.1-19.9-8.3-26.1c-0.1-0.2,0-0.5,0.2-0.6c0,0,0,0,0,0c0.2-0.1,0.5,0,0.6,0.2c1.2,2.3,11.6,22.9,8.2,27.1
		C259,143.1,257.1,143.7,255,143.7z"/>
	<path class="st1" d="M169.1,92.1c-3.9,20.7,10,58,10,58l-0.4,37.4c0,0,3.3,6.8,19.6,14c16.3,7.2,21.8,1,21.8,1l0.2-35.4
		c3.8,3.1,26.7,5.4,28.2-3.4c2.3-13.9,4.2-27.8,5.9-41.8c1-8.7,4.4-21.4-0.3-29.9L169.1,92.1z"/>
	<path class="st2" d="M212.2,205.5c-3.4,0-8-0.9-14.1-3.6c-16.3-7.2-19.7-14-19.8-14.2c0-0.1,0-0.1,0-0.2l0.4-37.3
		c-0.3-0.9-3.6-10-6.4-21.2c-2.7-10.9-5.6-26.2-3.6-37c0-0.2,0.2-0.4,0.4-0.4h85c0.2,0,0.3,0.1,0.4,0.2c3.9,7,2.4,16.9,1.1,24.8
		c-0.3,1.9-0.6,3.7-0.8,5.4c-1.6,13.9-3.6,27.9-5.9,41.8c-0.4,2.3-2.1,4-5.1,5.1c-6.9,2.6-19.1,1.2-23.1-1l-0.2,34.6
		c0,0.1,0,0.2-0.1,0.3C220.3,203,218,205.5,212.2,205.5z M179.2,187.4c0.5,0.8,4.4,7.1,19.3,13.7c14.5,6.4,20.4,2,21.2,1.3l0.2-35.2
		c0-0.2,0.1-0.3,0.3-0.4c0.2-0.1,0.3-0.1,0.5,0.1c2.6,2.2,15.7,4.1,22.9,1.3c2.7-1,4.2-2.5,4.5-4.4c2.3-13.8,4.2-27.8,5.9-41.7
		c0.2-1.7,0.5-3.5,0.8-5.4c1.2-7.7,2.7-17.3-0.9-24h-84.3c-3.6,20.5,9.9,57,10,57.4c0,0.1,0,0.1,0,0.2L179.2,187.4z"/>
	<path class="st2" d="M250.9,115.2h-63.4c-0.2,0-0.4-0.2-0.4-0.4s0.2-0.4,0.4-0.4h63.4c0.2,0,0.4,0.2,0.4,0.4
		S251.1,115.2,250.9,115.2z"/>
	<ellipse class="st2" cx="245.8" cy="108.9" rx="1.6" ry="4.5"/>
	<path class="st1" d="M249.3,153.3c0,0-11.6,5.5-16.1-6.3"/>
	<path class="st2" d="M243.4,155.1c-1.4,0-2.8-0.2-4.2-0.8c-2.9-1.1-5-3.6-6.4-7.1c-0.1-0.2,0.1-0.5,0.3-0.6c0.2-0.1,0.4,0,0.5,0.2
		c1.3,3.4,3.3,5.6,5.9,6.6c4.5,1.8,9.5-0.5,9.6-0.5c0.2-0.1,0.5,0,0.6,0.2c0.1,0.2,0,0.5-0.2,0.6c0,0,0,0,0,0
		C247.6,154.6,245.5,155.1,243.4,155.1z"/>
	<path class="st2" d="M220.4,167.2c-7.7-1.9-15.2-4.9-22.1-8.9c0,0,3.8,23.5,21.3,26.3L220.4,167.2z"/>
	<path class="st2" d="M219.6,185.1L219.6,185.1c-17.6-2.8-21.7-26.4-21.7-26.7c0-0.2,0.1-0.5,0.4-0.5c0.1,0,0.2,0,0.3,0.1
		c6.9,3.9,14.3,6.9,22,8.9c0.2,0,0.4,0.2,0.3,0.5l-0.8,17.4c0,0.1-0.1,0.2-0.2,0.3C219.8,185,219.7,185.1,219.6,185.1z M198.9,159.2
		c0.9,4.3,5.7,22.2,20.2,24.9l0.8-16.5C212.6,165.6,205.5,162.8,198.9,159.2L198.9,159.2z"/>
	<path class="st2" d="M169.1,92.1l-59.9-44.8c0,0-18.9,27.5,3.8,49.2S169.1,92.1,169.1,92.1z"/>
	<path class="st2" d="M134.5,105.5c-8.1,0.1-16-3-21.8-8.7c-22.6-21.7-4-49.5-3.9-49.8c0.1-0.1,0.2-0.2,0.3-0.2c0.1,0,0.2,0,0.3,0.1
		l60,44.8c0.2,0.2,0.2,0.4,0.1,0.6c0,0,0,0.1-0.1,0.1C169.2,92.7,152.4,105.5,134.5,105.5z M109.3,48c-2.1,3.4-16.7,28.5,4,48.2
		s51-1.1,55.1-4.1L109.3,48z"/>
	<path class="st2" d="M179.1,150.1c0,0,11.6-23.8,17.9-26.2c6.3-2.4,14.4-31.8,14.4-31.8h-42.3C169.1,92.1,159,119.5,179.1,150.1z"
		/>
	<path class="st2" d="M179.1,150.6c-0.1,0-0.3-0.1-0.4-0.2c-20-30.5-10.1-58.1-10-58.4c0.1-0.2,0.2-0.3,0.4-0.3h42.3
		c0.1,0,0.3,0.1,0.4,0.2c0.1,0.1,0.1,0.3,0.1,0.4c-0.3,1.2-8.3,29.6-14.7,32.1c-6,2.3-17.5,25.7-17.7,26
		C179.4,150.5,179.3,150.6,179.1,150.6L179.1,150.6z M169.5,92.6c-1,3-8.5,28.5,9.6,56.6c2-4,12-23.5,17.8-25.7
		c5.5-2.1,12.8-26.9,14-30.9H169.5z"/>
	<path class="st1" d="M206.2,122.4c0.3-3.5-1.3-6.9-2.9-10c-1.1-2.5-2.6-4.8-4.4-6.9c-1.9-2-4.6-3.4-7.3-3.1
		c-2.4,0.3-4.6,1.7-5.9,3.7c-1.3,2-2.2,4.3-2.5,6.7c-1.6,10.6,2.5,21.4,10.9,28.1"/>
	<path class="st2" d="M194.2,141.4c-0.1,0-0.2,0-0.3-0.1c-8.5-6.9-12.7-17.7-11.1-28.5c0.3-2.5,1.2-4.8,2.6-6.9
		c1.4-2.1,3.7-3.6,6.3-3.9c2.9-0.1,5.7,1.1,7.6,3.3c1.8,2.1,3.3,4.5,4.4,7c1.5,2.9,3.3,6.5,2.9,10.3c0,0.2-0.2,0.4-0.5,0.4
		c0,0,0,0,0,0c-0.2,0-0.4-0.2-0.4-0.5c0.3-3.5-1.4-7-2.8-9.8c-1.1-2.5-2.5-4.7-4.3-6.8c-1.7-2-4.3-3.1-6.9-3
		c-2.3,0.3-4.3,1.6-5.6,3.6c-1.3,2-2.1,4.2-2.4,6.6c-1.6,10.5,2.5,21,10.8,27.7c0.2,0.1,0.2,0.4,0.1,0.6c0,0,0,0,0,0
		C194.5,141.4,194.3,141.4,194.2,141.4z"/>
	<path class="st2" d="M256.6,127.5c-3.4,0-6.1-5.6-6.1-12.8c0-7.2,2.7-12.8,6.1-12.8c3.5,0,6.1,5.6,6.1,12.8S260,127.5,256.6,127.5z
		 M256.6,102.8c-2.8,0-5.2,5.5-5.2,11.9s2.4,11.9,5.2,11.9c2.8,0,5.2-5.5,5.2-11.9S259.4,102.8,256.6,102.8z"/>
	<path class="st1" d="M144.7,47.9c0.3-0.9,0.6-1.7,0.9-2.6c0.2-0.4,0.3-0.9,0.5-1.3c0.2-0.6,0.8-0.9,1.4-0.8
		c0.7,0.1,1.4,0.2,2.1,0.3c0.4,0.1,0.7,0.1,1.1,0.2c0.3,0,0.6-0.1,0.8-0.2c0.8-0.8,1.5-1.5,2.3-2.3c0.3-0.3,0.3-0.7,0.2-1.1
		c-0.2-0.8-0.4-1.7-0.6-2.5c-0.1-0.3-0.1-0.7-0.1-1c0-0.2,0.1-0.5,0.3-0.6c1.3-0.8,2.7-1.5,4.1-1.9c0.4-0.1,0.9,0,1.2,0.4
		c0.5,0.7,1.1,1.4,1.6,2.2c0.3,0.6,1,0.9,1.6,0.8c0.9-0.1,1.8-0.1,2.7-0.1c0.3,0,0.7-0.2,0.8-0.5c0.3-0.5,0.6-1,1-1.5
		c0.3-0.5,0.6-0.8,0.8-1.2c0.3-0.4,0.8-0.6,1.3-0.4c1.3,0.4,2.5,0.9,3.8,1.4c0.5,0.2,0.8,0.7,0.7,1.2c-0.1,0.7-0.2,1.4-0.3,2.1
		c0,0.3-0.1,0.7-0.1,1c-0.1,0.4,0.1,0.9,0.4,1.2c0.7,0.6,1.3,1.3,2,1.9c0.4,0.4,1,0.6,1.5,0.4c0.9-0.2,1.8-0.4,2.7-0.6
		c0.6-0.2,1.3,0.1,1.5,0.7c0.5,1.1,1,2.2,1.5,3.3c0.4,0.6,0.2,1.4-0.4,1.8c0,0,0,0,0,0c-0.5,0.4-1,0.7-1.4,1c-0.3,0.2-0.7,0.5-1,0.8
		c-0.3,0.2-0.4,0.5-0.4,0.9c0,1,0,1.9,0.1,2.8c0,0.5,0.3,1,0.8,1.3l1.6,0.9c0.3,0.2,0.6,0.4,0.9,0.6c0.4,0.3,0.6,0.9,0.4,1.4
		c-0.4,1.1-0.8,2.3-1.3,3.4c-0.1,0.2-0.2,0.3-0.3,0.5c-0.2,0.4-0.6,0.6-1.1,0.5l-2.5-0.4h-0.2c-0.7-0.2-1.5,0.1-1.9,0.7
		c-0.5,0.5-1,1-1.5,1.6c-0.5,0.5-0.6,1.1-0.5,1.8c0.2,0.8,0.4,1.6,0.6,2.4c0.3,0.6,0,1.3-0.6,1.5c0,0-0.1,0-0.1,0.1
		c-1.1,0.5-2.2,1-3.4,1.5c-0.5,0.3-1.2,0.1-1.5-0.4c-0.4-0.6-0.9-1.1-1.3-1.7c-0.9-1.2-1.1-1.4-2.7-1.3l-1.8,0.1
		c-0.6,0-1.1,0.3-1.4,0.8c-0.4,0.6-0.7,1.2-1.1,1.8c-0.2,0.3-0.4,0.6-0.7,0.9c-0.2,0.3-0.6,0.4-0.9,0.2l-3.6-1.3
		c-0.2-0.1-0.3-0.2-0.5-0.3c-0.4-0.2-0.6-0.6-0.5-1.1l0.4-2.4c0-0.2,0.1-0.5,0.1-0.7c0-0.4-0.1-0.8-0.4-1.1
		c-0.7-0.6-1.3-1.2-1.9-1.8c-0.4-0.4-0.9-0.5-1.4-0.3c-0.8,0.2-1.6,0.4-2.4,0.6h-0.1c-1.1,0.2-1.4,0.1-1.8-0.9s-1-2.1-1.4-3.3
		c-0.3-0.5-0.1-1.2,0.4-1.5c0,0,0.1,0,0.1,0c0.6-0.5,1.3-1,2-1.4c0.7-0.4,1-1.1,1-1.9c-0.1-0.9-0.1-1.7-0.1-2.6
		c0-0.4-0.2-0.7-0.5-0.9c-0.7-0.5-1.4-0.9-2.1-1.4c-0.5-0.2-0.9-0.7-1.1-1.2L144.7,47.9z M171.9,52.6c0-4.5-3.6-8.1-8.1-8.1
		c0,0-0.1,0-0.1,0c-4.4,0.1-7.9,3.7-8,8.1c0,4.4,3.6,8,8,8.1c4.4,0.1,8.1-3.5,8.1-7.9C171.9,52.8,171.9,52.7,171.9,52.6z"/>
	<path class="st2" d="M159.1,72.2c-0.2,0-0.3,0-0.5-0.1l-1-0.4l-2.6-1c-0.2-0.1-0.3-0.2-0.5-0.3c-0.6-0.3-0.9-0.9-0.8-1.5l0.2-1.1
		c0.1-0.5,0.2-0.9,0.2-1.4c0-0.2,0.1-0.5,0.1-0.7c0-0.3-0.1-0.6-0.3-0.7c-0.6-0.5-1.2-1.1-1.8-1.6l-0.2-0.2c-0.3-0.3-0.7-0.4-1-0.2
		c-0.6,0.1-1.1,0.3-1.7,0.4l-0.7,0.2h-0.1c-1.3,0.2-1.8,0-2.3-1.2c-0.4-0.9-0.9-1.9-1.4-3.3c-0.4-0.7-0.1-1.6,0.6-2
		c0.7-0.6,1.4-1,2-1.4c0.5-0.3,0.8-0.9,0.8-1.5c0-0.5-0.1-1.1-0.1-1.6c0-0.3,0-0.6,0-1c0-0.2-0.1-0.4-0.3-0.5l-0.9-0.6l-1.3-0.8
		c-0.6-0.3-1-0.8-1.3-1.4c0,0,0-0.1,0-0.1v-0.3c0,0,0-0.1,0-0.1l0.2-0.7l0.6-1.8c0.2-0.5,0.3-0.9,0.5-1.3c0.3-0.7,1-1.2,1.8-1.1
		c0.5,0.1,0.9,0.1,1.4,0.2l0.7,0.1l0.3,0.1c0.2,0,0.5,0.1,0.7,0.1c0.2,0,0.3,0,0.5-0.1c0.8-0.8,1.6-1.6,2.3-2.3
		c0.2-0.2,0.2-0.5,0.1-0.7c-0.1-0.4-0.2-0.7-0.2-1.1c-0.1-0.4-0.2-0.9-0.3-1.4c-0.1-0.4-0.1-0.8-0.1-1.1c0-0.4,0.2-0.7,0.5-1
		c1.3-0.9,2.7-1.5,4.3-1.9c0.6-0.2,1.3,0,1.7,0.6c0.2,0.3,0.4,0.5,0.6,0.8c0.3,0.5,0.7,0.9,1,1.4c0.2,0.4,0.7,0.7,1.2,0.6
		c0.6,0,1.2-0.1,1.8-0.1l1,0c0.2,0,0.4-0.1,0.5-0.3c0.2-0.3,0.4-0.6,0.6-0.9l0.5-0.8c0.2-0.4,0.5-0.7,0.7-1c0.4-0.6,1.1-0.8,1.8-0.6
		c1.5,0.5,2.7,1,3.8,1.4c0.7,0.3,1.1,1,1,1.7c0,0.5-0.1,1-0.2,1.4c0,0.2-0.1,0.5-0.1,0.7c0,0.2-0.1,0.6-0.1,1c0,0.3,0.1,0.6,0.3,0.8
		l0.4,0.4c0.5,0.5,1,1,1.6,1.5c0.3,0.3,0.7,0.4,1.1,0.3l1.3-0.3c0.5-0.1,0.9-0.2,1.4-0.3c0.8-0.2,1.7,0.2,2,1c0.5,1.1,1,2.2,1.5,3.3
		c0.5,0.8,0.2,1.8-0.6,2.3c-0.3,0.2-0.6,0.4-0.9,0.6l-0.6,0.4c-0.3,0.2-0.7,0.5-1,0.8c-0.2,0.1-0.3,0.4-0.3,0.6v0.6
		c0,0.8,0,1.5,0.1,2.3c0,0.4,0.2,0.7,0.6,0.9l0.6,0.4l0.9,0.6c0.3,0.2,0.7,0.4,1,0.6c0.6,0.4,0.8,1.2,0.6,1.9
		c-0.4,1.1-0.9,2.3-1.3,3.4c-0.1,0.2-0.2,0.4-0.3,0.5c-0.3,0.6-0.9,0.8-1.5,0.7l-2.3-0.4h-0.2c-0.5-0.1-1.1,0.1-1.4,0.5
		c-0.3,0.4-0.7,0.8-1.1,1.1l-0.4,0.5c-0.4,0.4-0.5,0.9-0.3,1.4c0.2,0.8,0.4,1.6,0.6,2.4c0.3,0.8-0.1,1.8-1,2.1c0,0,0,0,0,0
		c-1,0.5-2.2,1-3.4,1.5c-0.7,0.4-1.6,0.1-2-0.5c-0.4-0.5-0.7-0.9-1-1.4l-0.2-0.3c-0.8-1.1-0.9-1.2-2.2-1.1l-1.8,0.1
		c-0.4,0-0.8,0.2-1,0.6l-0.4,0.6c-0.2,0.4-0.5,0.8-0.7,1.2c-0.2,0.3-0.5,0.6-0.7,0.9C159.8,72,159.5,72.2,159.1,72.2z M151.4,62
		c0.5,0,0.9,0.2,1.3,0.5l0.2,0.2c0.6,0.5,1.2,1.1,1.8,1.6c0.4,0.4,0.6,0.9,0.6,1.5c0,0.3,0,0.5-0.1,0.8c-0.1,0.5-0.1,0.9-0.2,1.4
		l-0.2,1.1c0,0.3,0.1,0.5,0.3,0.6c0.1,0.1,0.2,0.2,0.4,0.2l2.6,1l1,0.4c0.2,0.1,0.4,0,0.5-0.1c0.2-0.2,0.4-0.5,0.6-0.8
		c0.2-0.4,0.5-0.8,0.7-1.2l0.4-0.6c0.4-0.6,1-1,1.8-1l1.8-0.1c1.7-0.1,2,0.1,3,1.5l0.2,0.3c0.3,0.5,0.7,0.9,1,1.4
		c0.2,0.3,0.6,0.5,0.9,0.3c0,0,0,0,0,0c1.3-0.5,2.4-1,3.4-1.5c0.6-0.3,0.7-0.5,0.5-1.1c-0.2-0.8-0.4-1.6-0.6-2.4
		c-0.2-0.8,0-1.6,0.6-2.2l0.5-0.5c0.3-0.4,0.7-0.7,1-1.1c0.5-0.7,1.5-1,2.3-0.8h0.2l2.5,0.4c0.3,0.1,0.5-0.1,0.6-0.3
		c0.1-0.1,0.2-0.3,0.2-0.4c0.4-1.1,0.9-2.3,1.3-3.4c0.2-0.3,0-0.7-0.3-0.9c-0.3-0.2-0.6-0.4-0.9-0.6c-0.3-0.2-0.6-0.4-0.9-0.5
		l-0.7-0.4c-0.6-0.3-1-0.9-1-1.6c0-0.8,0-1.5-0.1-2.3v-0.6c0-0.5,0.2-1,0.6-1.3c0.3-0.3,0.7-0.6,1-0.8c0.2-0.2,0.4-0.3,0.6-0.4
		c0.2-0.1,0.6-0.4,0.8-0.6c0.4-0.2,0.6-0.8,0.4-1.2c0,0,0-0.1,0-0.1c-0.5-1.1-1-2.2-1.5-3.3c-0.1-0.4-0.6-0.6-1-0.5c0,0,0,0,0,0
		l-1.4,0.3l-1.4,0.4c-0.7,0.2-1.4,0-1.9-0.6c-0.5-0.5-1-1-1.5-1.5l-0.4-0.4c-0.4-0.4-0.6-1-0.6-1.5c0-0.3,0.1-0.7,0.1-1
		s0.1-0.5,0.1-0.7c0.1-0.5,0.2-0.9,0.2-1.4c0.1-0.3-0.1-0.6-0.4-0.8c-1.1-0.4-2.2-0.8-3.8-1.4c-0.3-0.1-0.6,0-0.7,0.3
		c-0.2,0.3-0.5,0.7-0.7,1l-0.5,0.8c-0.2,0.3-0.4,0.6-0.6,0.9c-0.2,0.4-0.7,0.7-1.2,0.7l-1,0c-0.6,0-1.2,0-1.8,0.1
		c-0.8,0.1-1.6-0.3-2-1c-0.3-0.5-0.7-0.9-1-1.4l-0.6-0.8c-0.1-0.2-0.4-0.4-0.7-0.3c-1.4,0.4-2.8,1-4,1.8c-0.1,0.1-0.1,0.2-0.1,0.3
		c0,0.3,0,0.6,0.1,0.9c0.1,0.5,0.2,0.9,0.3,1.4c0.1,0.5,0.2,0.8,0.2,1.1c0.1,0.5,0,1.1-0.3,1.5c-0.7,0.7-1.5,1.6-2.3,2.4
		c-0.3,0.2-0.7,0.4-1.1,0.4c-0.3,0-0.6,0-0.9-0.1h-0.3l-0.7-0.1c-0.4-0.1-0.9-0.2-1.3-0.2c-0.4-0.1-0.8,0.2-0.9,0.6
		c-0.2,0.4-0.3,0.9-0.5,1.3c-0.2,0.6-0.4,1.2-0.6,1.8l-0.2,0.7v0.2c0.2,0.4,0.5,0.7,0.9,0.9l1.3,0.8l0.9,0.6
		c0.4,0.3,0.7,0.7,0.7,1.2c0,0.3,0,0.6,0,1c0,0.5,0,1,0.1,1.6c0.1,0.9-0.4,1.8-1.2,2.3c-0.6,0.4-1.2,0.8-1.9,1.4
		c-0.4,0.3-0.5,0.5-0.3,1c0.5,1.3,1,2.3,1.4,3.2c0.4,0.8,0.5,0.8,1.4,0.7l0.8-0.2c0.6-0.1,1.1-0.3,1.7-0.4
		C151,62.1,151.2,62.1,151.4,62z M163.8,61.2L163.8,61.2c-4.7,0-8.5-3.8-8.5-8.5c0-2.3,0.9-4.4,2.5-6c1.6-1.6,3.7-2.5,5.9-2.5
		c4.7-0.1,8.6,3.7,8.6,8.4c0,0,0,0.1,0,0.1c0.1,2.2-0.8,4.3-2.3,5.9C168.4,60.2,166.1,61.2,163.8,61.2z M163.6,45
		c-2,0.1-3.9,0.9-5.3,2.3c-1.4,1.4-2.3,3.4-2.3,5.4c0,4.2,3.4,7.6,7.6,7.6l0,0c2.1,0,4.2-0.8,5.6-2.4c1.4-1.4,2.1-3.3,2-5.2l0,0
		c0-4.2-3.4-7.7-7.6-7.7C163.8,45,163.7,45,163.6,45L163.6,45z"/>
	<path class="st1" d="M209.4,76.1c-1.3,0-2.7-0.1-4,0c-1.9,0.3-3.8-1-4.1-3c-0.9-3.1-2.4-5.9-4.4-8.3c-2.9-3.6-4.3-8.2-3.9-12.8
		c0.9-9.5,8.5-15.3,18.3-14.3c14.4,1.4,18.5,16.3,11,26.7c-2,2.8-4,5.5-4.9,8.9c-0.5,1.9-1.9,2.8-3.9,2.7
		C212.2,76.1,210.8,76.1,209.4,76.1z"/>
	<path class="st2" d="M205.2,76.6c-2,0.1-3.8-1.3-4.2-3.3c-0.9-3-2.4-5.7-4.4-8.1c-3-3.7-4.4-8.4-4-13.1c0.3-4.3,2.3-8.3,5.6-11.1
		c3.7-2.9,8.5-4.2,13.2-3.6c6.3,0.6,11.3,4,13.7,9.2c2.6,5.7,1.7,12.7-2.4,18.2c-1.9,2.7-3.9,5.4-4.8,8.8c-0.5,2-2.1,3.1-4.3,3
		c-0.9,0-1.9,0-2.8,0h-1.3h-1.2c-0.9,0-1.8,0-2.7,0L205.2,76.6z M209.3,38.1c-3.8-0.1-7.5,1.2-10.5,3.6c-3.1,2.6-5,6.4-5.3,10.5
		c-0.4,4.5,0.9,9,3.8,12.4c2.1,2.4,3.7,5.3,4.5,8.4c0.3,1.7,1.9,2.9,3.6,2.7c0,0,0,0,0,0c0.9,0,1.9,0,2.8,0h1.2h1.3
		c0.9,0,1.9,0,2.9,0c1.9,0.1,3-0.7,3.4-2.3c0.9-3.6,3-6.4,4.9-9.1c3.8-5.3,4.7-11.9,2.3-17.4c-2.2-5-6.8-8.1-12.9-8.7
		C210.6,38.2,210,38.1,209.3,38.1z"/>
	<path class="st1" d="M204.1,76.2h10.7c1,0,1.7,0.8,1.7,1.7v0.5c0,1-0.8,1.7-1.7,1.7h-10.7c-1,0-1.7-0.8-1.7-1.7v-0.5
		C202.3,76.9,203.1,76.2,204.1,76.2z"/>
	<path class="st2" d="M214.7,80.6h-10.7c-1.2,0-2.2-1-2.2-2.2v-0.6c0-1.2,1-2.2,2.2-2.2h10.7c1.2,0,2.2,1,2.2,2.2v0.6
		C216.9,79.6,216,80.6,214.7,80.6C214.8,80.6,214.7,80.6,214.7,80.6z M204.1,76.6c-0.7,0-1.3,0.6-1.3,1.3v0.6c0,0.7,0.6,1.3,1.3,1.3
		c0,0,0,0,0,0h10.7c0.7,0,1.3-0.6,1.3-1.3c0,0,0,0,0,0v-0.6c0-0.7-0.6-1.3-1.3-1.3L204.1,76.6z"/>
	<path class="st1" d="M204.1,80.2h10.7c1,0,1.7,0.8,1.7,1.7v0.5c0,1-0.8,1.7-1.7,1.7h-10.7c-1,0-1.7-0.8-1.7-1.7v-0.5
		C202.3,80.9,203.1,80.2,204.1,80.2z"/>
	<path class="st2" d="M214.7,84.6h-10.7c-1.2,0-2.2-1-2.2-2.2v-0.6c0-1.2,1-2.2,2.2-2.2h10.7c1.2,0,2.2,1,2.2,2.2v0.6
		C216.9,83.7,215.9,84.6,214.7,84.6z M204.1,80.6c-0.7,0-1.3,0.6-1.3,1.3v0.6c0,0.7,0.6,1.3,1.3,1.3h10.7c0.7,0,1.3-0.6,1.3-1.3
		v-0.6c0-0.7-0.6-1.3-1.3-1.3H204.1z"/>
	<path class="st1" d="M214.9,84.2c0,1.5-2.5,2.7-5.5,2.7s-5.5-1.2-5.5-2.7H214.9z"/>
	<path class="st2" d="M209.4,87.4c-3.3,0-5.9-1.4-5.9-3.2c0-0.2,0.2-0.4,0.4-0.4h11c0.2,0,0.4,0.2,0.4,0.4
		C215.3,86,212.7,87.4,209.4,87.4z M204.5,84.6c0.5,0.9,2.4,1.8,4.9,1.8s4.4-0.9,4.9-1.8H204.5z"/>
	<path class="st2" d="M207,74.6L207,74.6c-0.2,0-0.4-0.2-0.4-0.5c0,0,0,0,0,0v-0.4c0.4-3.1,0.4-6.3,0.2-9.4c-2-0.3-3.9-1.1-5.5-2.3
		c-1-0.7-1.8-1.6-2.3-2.7c-0.5-1.2-0.4-2.6,0.3-3.7c1.3-1.5,3.5-1.7,5-0.4c0.1,0.1,0.1,0.1,0.2,0.2c1.3,1.7,2.2,3.7,2.6,5.8
		c0.2,0.8,0.3,1.5,0.5,2.3c1.5,0.1,3,0,4.4-0.4v-0.2v-0.3c0.3-2.6,0.7-5.8,2.6-7.9c0.3-0.3,1.4-1.4,2.6-1.3c0.6,0.1,1.1,0.5,1.4,1
		c0.8,1.5,0.8,3.3,0,4.9c-0.8,1.5-1.9,2.7-3.4,3.5c-0.8,0.5-1.6,0.8-2.4,1.1c-0.3,3.4-0.1,6.8,0.4,10.2c0,0.2-0.1,0.5-0.4,0.5
		c-0.2,0-0.5-0.1-0.5-0.4c-0.5-3.3-0.7-6.7-0.4-10.1c-1.4,0.3-2.8,0.5-4.3,0.3c0.2,3.1,0.2,6.3-0.2,9.4v0.4
		C207.4,74.4,207.2,74.6,207,74.6z M202,55.2h-0.1c-0.7,0-1.4,0.3-1.9,0.9c-0.5,0.8-0.6,1.9-0.2,2.8c0.4,1,1.1,1.8,2,2.4
		c1.4,1.1,3.1,1.8,4.8,2.1c-0.1-0.6-0.2-1.3-0.4-1.9c-0.4-2-1.2-3.8-2.4-5.5C203.4,55.4,202.7,55.2,202,55.2L202,55.2z M217.1,54.2
		c-0.7,0.1-1.3,0.5-1.8,1c-1.7,1.8-2,4.9-2.3,7.4v0.2c0.6-0.2,1.3-0.5,1.8-0.9c1.3-0.7,2.3-1.8,3-3.1c0.7-1.3,0.7-2.8,0-4.1
		C217.7,54.4,217.5,54.2,217.1,54.2L217.1,54.2z"/>
	<path class="st2" d="M257.6,55.6c-5.8,0-10.3-10.9-10.3-24.9s4.5-24.9,10.3-24.9c5.8,0,10.3,10.9,10.3,24.9S263.4,55.6,257.6,55.6z
		 M257.6,6.8c-5.2,0-9.4,10.7-9.4,24s4.2,24,9.4,24c5.2,0,9.4-10.7,9.4-24S262.8,6.8,257.6,6.8L257.6,6.8z"/>
	<path class="st2" d="M271.7,45.1c-0.5,0-1,0-1.6-0.1c-5-0.3-11-2.1-17-4.9c-5.9-2.8-11.1-6.5-14.4-10.2s-4.7-7.3-3.5-9.9
		c1.2-2.6,4.7-3.8,9.9-3.4c5,0.3,11,2.1,17,4.9s11.1,6.5,14.4,10.1c3.4,3.7,4.7,7.3,3.5,9.9C278.9,43.8,276,45.1,271.7,45.1z
		 M243.6,17.4c-3.9,0-6.6,1.1-7.5,3l0,0c-1,2.2,0.2,5.4,3.3,8.9c3.3,3.6,8.3,7.2,14.2,10c5.8,2.8,11.7,4.5,16.6,4.8
		c4.7,0.3,8-0.8,9-3c1-2.2-0.2-5.4-3.3-8.9c-3.3-3.6-8.3-7.2-14.2-10c-5.8-2.8-11.7-4.5-16.6-4.8C244.5,17.4,244,17.4,243.6,17.4z
		 M235.6,20.2L235.6,20.2z"/>
	<path class="st2" d="M243.5,45.1c-4.3,0-7.2-1.2-8.3-3.5c-1.2-2.6,0-6.1,3.5-9.9c3.5-3.8,8.5-7.3,14.4-10.2s12-4.6,17-4.9
		c5.2-0.3,8.7,0.9,9.9,3.4l0,0c1.2,2.6,0,6.1-3.5,9.9s-8.5,7.3-14.4,10.2c-5.9,2.8-12,4.6-17,4.9C244.6,45,244,45.1,243.5,45.1z
		 M271.7,17.4c-0.5,0-1,0-1.5,0.1c-4.9,0.3-10.8,2-16.6,4.8c-5.8,2.8-10.9,6.3-14.2,10c-3.2,3.5-4.4,6.7-3.4,8.9c1,2.2,4.3,3.3,9,3
		c4.9-0.3,10.8-2,16.6-4.8c5.8-2.8,10.9-6.3,14.2-10c3.2-3.5,4.4-6.7,3.3-8.9l0,0C278.3,18.5,275.6,17.4,271.7,17.4z"/>
	<circle class="st2" cx="257.6" cy="30.8" r="5.4"/>
	<path class="st2" d="M181.6,33.2c-0.3,0-0.4-0.2-0.4-0.5c0,0,0-0.1,0-0.1l5.8-19.4c0.1-0.2,0.2-0.3,0.4-0.3l2.8-0.3
		c0.2,0,0.3,0.1,0.4,0.2l10.1,17.5c0.1,0.1,0.1,0.3,0,0.4c-0.1,0.1-0.2,0.2-0.3,0.2l-3.8,0.5c-0.2,0-0.4-0.1-0.4-0.2l-2.1-3.8
		l-7.4,0.9l-1.1,4.1c-0.1,0.2-0.2,0.3-0.4,0.3L181.6,33.2L181.6,33.2z M187.8,13.7l-5.6,18.5l2.7-0.3l1.1-4.1c0-0.2,0.2-0.3,0.4-0.3
		l8-1c0.2,0,0.4,0.1,0.4,0.2l2.1,3.8l2.8-0.3l-9.6-16.7L187.8,13.7z M187.2,25.4c-0.1,0-0.2-0.1-0.3-0.2c-0.1-0.1-0.1-0.3-0.1-0.4
		l2-7.9c0-0.2,0.2-0.3,0.4-0.3c0.2,0,0.4,0.1,0.4,0.2l3.7,7.2c0.1,0.1,0.1,0.3,0,0.4c-0.1,0.1-0.2,0.2-0.3,0.2L187.2,25.4
		L187.2,25.4z M189.4,18.3l-1.6,6.1l4.4-0.5L189.4,18.3z"/>
	<path class="st1" d="M235.3,64.3l0.6,0.1c0.3,0.1,0.6,0.1,0.9,0.1c0.3,0,0.6,0,0.8-0.1c0.3-0.1,0.5-0.2,0.7-0.4
		c0.2-0.3,0.3-0.6,0.4-0.9c0.1-0.5,0-0.9-0.3-1.3c-0.3-0.4-0.7-0.6-1.2-0.7c-0.4-0.1-0.8,0-1.2,0.2c-0.4,0.2-0.7,0.5-0.9,0.9l-2.2-1
		c0.2-0.4,0.5-0.8,0.8-1.1c0.3-0.3,0.7-0.5,1.1-0.7c0.4-0.2,0.8-0.2,1.3-0.3c1-0.1,2,0.1,2.9,0.6c0.4,0.2,0.8,0.5,1.2,0.9
		c0.3,0.3,0.6,0.8,0.7,1.2c0.1,0.5,0.2,1,0.1,1.5c-0.1,0.7-0.4,1.3-0.9,1.7c-0.5,0.5-1.1,0.7-1.8,0.8l0,0c0.7,0.2,1.3,0.7,1.6,1.4
		c0.3,0.7,0.4,1.4,0.2,2.2c-0.1,0.6-0.3,1.1-0.6,1.6c-0.3,0.4-0.7,0.8-1.2,1c-0.5,0.2-1,0.4-1.5,0.5c-0.6,0.1-1.1,0-1.7-0.1
		c-0.5-0.1-1-0.2-1.5-0.4c-0.4-0.2-0.8-0.4-1.2-0.8c-0.3-0.3-0.6-0.7-0.8-1.1c-0.2-0.5-0.3-1-0.4-1.5l2.4-0.2c0,0.5,0.2,1,0.5,1.4
		c0.3,0.4,0.8,0.6,1.3,0.7c0.3,0.1,0.6,0.1,0.9,0c0.3,0,0.5-0.1,0.8-0.3c0.2-0.1,0.4-0.3,0.6-0.5c0.2-0.2,0.3-0.5,0.3-0.8
		c0.1-0.4,0-0.7-0.1-1c-0.1-0.3-0.3-0.5-0.6-0.7c-0.3-0.2-0.6-0.3-0.9-0.4c-0.3-0.1-0.6-0.2-1-0.3l-0.5-0.1L235.3,64.3z"/>
	<path class="st2" d="M236.1,72.9c-0.4,0-0.7,0-1.1-0.1c-0.5-0.1-1.1-0.3-1.6-0.5c-0.5-0.2-0.9-0.5-1.3-0.8
		c-0.4-0.4-0.7-0.8-0.9-1.2c-0.2-0.5-0.4-1.1-0.4-1.6c0-0.1,0-0.2,0.1-0.3c0.1-0.1,0.2-0.1,0.3-0.2l2.4-0.2c0.1,0,0.2,0,0.3,0.1
		c0.1,0.1,0.1,0.2,0.2,0.3c0,0.4,0.1,0.8,0.4,1.1c0.3,0.3,0.6,0.5,1,0.5c0.2,0,0.5,0,0.7,0c0.2,0,0.4-0.1,0.6-0.2
		c0.2-0.1,0.3-0.3,0.4-0.4c0.1-0.2,0.2-0.4,0.2-0.6c0.1-0.3,0-0.5-0.1-0.8c-0.1-0.2-0.2-0.4-0.4-0.5c-0.2-0.2-0.5-0.3-0.7-0.4
		c-0.3-0.1-0.6-0.2-0.9-0.2l-0.5-0.1c-0.2,0-0.4-0.3-0.4-0.5l0.4-1.9c0-0.2,0.3-0.4,0.5-0.4L236,64c0.3,0.1,0.6,0.1,0.9,0.1
		c0.2,0,0.5,0,0.7-0.1c0.2,0,0.3-0.2,0.5-0.3c0.2-0.2,0.2-0.4,0.3-0.7c0.1-0.3,0-0.7-0.2-0.9c-0.2-0.3-0.6-0.5-0.9-0.5
		c-0.3-0.1-0.7,0-1,0.1c-0.3,0.2-0.6,0.4-0.7,0.7c-0.1,0.2-0.4,0.3-0.6,0.2l-2.2-1c-0.1-0.1-0.2-0.1-0.2-0.3c-0.1-0.1-0.1-0.2,0-0.3
		c0.2-0.5,0.5-0.9,0.9-1.2c0.4-0.3,0.8-0.6,1.2-0.8c0.5-0.2,0.9-0.3,1.4-0.3c0.5,0,1,0,1.5,0.1c0.6,0.1,1.1,0.3,1.6,0.5
		c0.5,0.2,0.9,0.6,1.3,1c0.4,0.4,0.6,0.9,0.8,1.4c0.2,0.6,0.2,1.2,0.1,1.8c-0.1,0.7-0.5,1.4-1,2c-0.3,0.3-0.6,0.5-0.9,0.6
		c0.4,0.3,0.7,0.6,0.9,1c0.4,0.8,0.5,1.6,0.3,2.4c-0.1,0.6-0.4,1.3-0.7,1.8c-0.3,0.5-0.8,0.9-1.3,1.1c-0.5,0.3-1.1,0.4-1.7,0.5
		C236.6,72.9,236.4,72.9,236.1,72.9z M231.8,69c0,0.3,0.1,0.6,0.3,0.9c0.2,0.4,0.4,0.7,0.7,1c0.3,0.3,0.7,0.5,1,0.7
		c0.4,0.2,0.9,0.3,1.4,0.4c0.5,0.1,1,0.1,1.5,0.1c0.5,0,0.9-0.2,1.4-0.4c0.4-0.2,0.7-0.5,1-0.9c0.3-0.4,0.5-0.9,0.6-1.4
		c0.1-0.6,0.1-1.3-0.2-1.9c-0.3-0.6-0.8-1-1.4-1.1c-0.2-0.1-0.3-0.3-0.3-0.5c0-0.2,0.2-0.4,0.4-0.4c0.6,0,1.1-0.2,1.5-0.6
		c0.4-0.4,0.7-0.9,0.8-1.5c0.1-0.4,0.1-0.9-0.1-1.3c-0.1-0.4-0.3-0.8-0.6-1.1c-0.3-0.3-0.7-0.6-1-0.8c-0.8-0.4-1.7-0.6-2.7-0.5
		c-0.4,0-0.8,0.1-1.1,0.2c-0.4,0.1-0.7,0.3-1,0.6c-0.2,0.2-0.4,0.4-0.5,0.6l1.4,0.7c0.2-0.3,0.5-0.6,0.9-0.7c0.5-0.2,1-0.3,1.5-0.2
		c0.6,0.1,1.1,0.4,1.5,0.9c0.3,0.5,0.5,1.1,0.4,1.6c-0.1,0.4-0.2,0.8-0.5,1.1c-0.2,0.3-0.5,0.4-0.9,0.5c-0.3,0.1-0.7,0.1-1,0.1
		c-0.3,0-0.6-0.1-1-0.1h-0.1l-0.2,1.1h0.1c0.4,0.1,0.7,0.2,1,0.3c0.4,0.1,0.7,0.3,1,0.5c0.7,0.5,1,1.4,0.8,2.2
		c-0.1,0.7-0.5,1.3-1.1,1.6c-0.3,0.2-0.6,0.3-0.9,0.3c-0.3,0.1-0.7,0.1-1,0c-0.6-0.1-1.2-0.4-1.5-0.9c-0.3-0.3-0.4-0.7-0.5-1.1
		L231.8,69z"/>
	<path class="st1" d="M243,71l2.2,0.4l-2.4,4.4l-1.9-0.4L243,71z"/>
	<path class="st2" d="M242.8,76.3L242.8,76.3l-2-0.4c-0.1,0-0.3-0.1-0.3-0.2c-0.1-0.1-0.1-0.3,0-0.4l2.1-4.5
		c0.1-0.2,0.3-0.3,0.5-0.2l2.2,0.4c0.1,0,0.3,0.1,0.3,0.2c0.1,0.1,0.1,0.3,0,0.4l-2.4,4.4C243.1,76.2,242.9,76.3,242.8,76.3z
		 M241.5,75.2l1,0.2l2-3.6l-1.3-0.2L241.5,75.2z"/>
	<path class="st1" d="M252.6,64.8l-2.8,1.8l-1-1.7l4.4-2.5l2,0.4l-2.3,12.7l-2.2-0.4L252.6,64.8z"/>
	<path class="st2" d="M252.9,75.8L252.9,75.8l-2.2-0.4c-0.2,0-0.4-0.3-0.4-0.5c0,0,0,0,0,0l1.7-9.2l-1.9,1.2
		c-0.1,0.1-0.2,0.1-0.3,0.1c-0.1,0-0.2-0.1-0.3-0.2l-1-1.7c0-0.1,0-0.2,0-0.3c0-0.1,0.1-0.2,0.2-0.3l4.4-2.5
		c0.1-0.1,0.2-0.1,0.3-0.1l2,0.4c0.2,0,0.4,0.3,0.4,0.5l-2.3,12.7C253.3,75.7,253.1,75.8,252.9,75.8L252.9,75.8z M251.2,74.6
		l1.3,0.2l2.2-11.8l-1.4-0.3l-3.9,2.2l0.5,0.9l2.4-1.5c0.1-0.1,0.3-0.1,0.5,0c0.1,0.1,0.2,0.3,0.2,0.5L251.2,74.6z"/>
	<path class="st1" d="M263,74.6l-5.4-1l0.4-2.1l6.6-7.1l2.4,0.5l-1.5,8.2l1.8,0.3l-0.4,1.9l-1.8-0.3l-0.5,2.6l-2.2-0.4L263,74.6z
		 M264.3,67.5L264.3,67.5l-4.1,4.6l3.2,0.6L264.3,67.5z"/>
	<path class="st2" d="M264.7,78L264.7,78l-2.2-0.4c-0.2,0-0.4-0.3-0.4-0.5l0.4-2.2l-5-0.9c-0.1,0-0.2-0.1-0.3-0.2
		c-0.1-0.1-0.1-0.2-0.1-0.3l0.4-2.1c0-0.1,0.1-0.2,0.1-0.2l6.6-7.1c0.1-0.1,0.3-0.2,0.4-0.1l2.4,0.5c0.2,0,0.4,0.3,0.4,0.5l-1.4,7.8
		l1.4,0.3c0.2,0,0.4,0.3,0.4,0.5l-0.4,1.9c0,0.1-0.1,0.2-0.2,0.3c-0.1,0.1-0.2,0.1-0.3,0.1l-1.4-0.3l-0.4,2.2c0,0.1-0.1,0.2-0.2,0.3
		C264.9,78,264.8,78,264.7,78z M263.1,76.8l1.3,0.2l0.4-2.1c0-0.2,0.3-0.4,0.5-0.4l1.4,0.3l0.2-1.1l-1.4-0.3c-0.1,0-0.2-0.1-0.3-0.2
		c-0.1-0.1-0.1-0.2-0.1-0.3l1.4-7.8l-1.8-0.3l-6.3,6.8l-0.3,1.6l5,0.9c0.2,0,0.4,0.3,0.4,0.5L263.1,76.8z M263.4,73.1L263.4,73.1
		l-3.3-0.6c-0.2,0-0.3-0.1-0.3-0.3c-0.1-0.2,0-0.3,0.1-0.4l4.1-4.6c0.1-0.1,0.3-0.2,0.4-0.1c0.1,0,0.2,0.1,0.3,0.2
		c0.1,0.1,0.1,0.2,0.1,0.3l-0.9,5.1C263.8,72.9,263.6,73.1,263.4,73.1z M261,71.8l2,0.4l0.6-3.2L261,71.8z"/>
	<path class="st3" d="M187.5,76.9c-2.2,0-4-1.8-4-4c0-2.2,1.8-4,4-4c2.2,0,4,1.8,4,4c0,0,0,0,0,0C191.5,75.1,189.7,76.8,187.5,76.9z
		 M187.5,69.8c-1.7,0-3.1,1.4-3.1,3.1c0,1.7,1.4,3.1,3.1,3.1c1.7,0,3.1-1.4,3.1-3.1v0C190.6,71.2,189.2,69.9,187.5,69.8L187.5,69.8z
		"/>
	<path class="st2" d="M155.7,28.6c-0.2,0-0.4-0.2-0.4-0.4v-5.4c0-0.2,0.2-0.4,0.4-0.4c0.2,0,0.4,0.2,0.4,0.4v5.4
		C156.1,28.4,155.9,28.6,155.7,28.6z"/>
	<path class="st2" d="M158.4,25.9H153c-0.2,0-0.4-0.2-0.4-0.4c0-0.2,0.2-0.4,0.4-0.4h5.4c0.2,0,0.4,0.2,0.4,0.4
		C158.9,25.7,158.7,25.9,158.4,25.9z"/>
	<path class="st2" d="M232.4,52.5c-0.1,0-0.1,0-0.2,0c-0.2-0.1-0.3-0.4-0.2-0.6c0,0,0,0,0,0l1.9-4.1c0.1-0.2,0.3-0.4,0.6-0.3
		c0.2,0.1,0.4,0.3,0.3,0.6c0,0,0,0.1,0,0.1l-1.9,4C232.7,52.4,232.6,52.5,232.4,52.5z"/>
	<path class="st2" d="M235.3,51.4c-0.1,0-0.1,0-0.2,0l-4.1-1.9c-0.2-0.1-0.3-0.4-0.1-0.6c0.1-0.2,0.3-0.3,0.5-0.2l4.1,1.9
		c0.2,0.1,0.3,0.4,0.2,0.6c0,0,0,0,0,0C235.7,51.4,235.5,51.4,235.3,51.4z"/>
	<circle class="st3" cx="190.1" cy="40.6" r="1.1"/>
	<path class="st3" d="M173.6,19.2c-2.3,0-2.3,3.6,0,3.6C175.9,22.8,175.9,19.2,173.6,19.2z"/>
	<path class="st3" d="M177.4,83.3c-0.5,0-0.9,0.4-0.9,0.9s0.4,0.9,0.9,0.9c0.5,0,0.9-0.4,0.9-0.9S177.9,83.3,177.4,83.3z"/>
	<path class="st3" d="M230.4,78.4c-2.3,0-2.3,3.6,0,3.6C232.7,82,232.7,78.4,230.4,78.4z"/>
	<rect x="209.5" y="21.3" transform="matrix(0.9545 -0.2982 0.2982 0.9545 2.2504 64.6897)" class="st3" width="7.2" height="7.2"/>
	<rect x="252.1" y="81.1" transform="matrix(0.334 -0.9426 0.9426 0.334 90.6382 296.6188)" class="st3" width="6.2" height="6.2"/>
	<path class="st3" d="M220.4,10.8c-0.7,0-1.3-0.6-1.3-1.3c0-0.7,0.6-1.3,1.3-1.3c0.7,0,1.3,0.6,1.3,1.3c0,0,0,0,0,0
		C221.7,10.3,221.1,10.8,220.4,10.8z M220.4,9.2c-0.2,0-0.4,0.2-0.4,0.4s0.2,0.4,0.4,0.4c0.2,0,0.4-0.2,0.4-0.4c0,0,0,0,0,0
		C220.8,9.4,220.6,9.2,220.4,9.2z"/>
</g>
</svg>
