<svg xmlns="http://www.w3.org/2000/svg" viewBox="0 0 354.51 83.23"><defs><style>.cls-1{fill:#fefeff;}</style></defs><title>logoW</title><g id="Layer_2" data-name="Layer 2"><g id="Layer_1-2" data-name="Layer 1"><path class="cls-1" d="M14.87,37.72a8.51,8.51,0,0,1-6.16,2.49,8.5,8.5,0,0,1-6.15-2.49A8.21,8.21,0,0,1,0,31.7a8,8,0,0,1,2.56-6.08,8.29,8.29,0,0,1,6.15-2.56,8.19,8.19,0,0,1,6.16,2.56,8.43,8.43,0,0,1,0,12.1ZM.76,80.67V43.74H16.6V80.67Z"/><path class="cls-1" d="M49.17,80.67V61.58c0-3-1.66-4.91-4.15-4.91s-4.35,1.94-4.35,4.91V80.67H25V43.74H40.6v5.11h.14C43.85,44.91,47.65,43,52.08,43c8,0,12.79,5.25,12.79,13.76V80.67Z"/><path class="cls-1" d="M99.94,80.46a19.48,19.48,0,0,1-6.15,1c-5.26,0-9.55-1.39-12.8-4.15s-4.84-6.78-4.84-12V56H70.07V43.74H76.5v-12H91.78v12h8.44V56H91.78v7.6c0,3.12,1.8,4.64,5.47,4.64a8.38,8.38,0,0,0,2.69-.42Z"/><path class="cls-1" d="M110.87,76a17.86,17.86,0,0,1-6-13.83,17.65,17.65,0,0,1,6.08-13.76,22.33,22.33,0,0,1,29.26-.14,17.38,17.38,0,0,1,6.08,13.62,18.22,18.22,0,0,1-6.08,14,21.07,21.07,0,0,1-14.74,5.54A20.77,20.77,0,0,1,110.87,76ZM120,62.2c0,3.39,2.42,6.16,5.54,6.16s5.6-2.77,5.6-6.16-2.29-6.15-5.54-6.15S120,58.67,120,62.2Z"/><path class="cls-1" d="M168.14,43.74V62.82c0,3.05,1.73,4.91,4.22,4.91s4.36-1.93,4.36-4.91V43.74h15.7V80.67H176.79v-5h-.14c-3.18,3.94-7,5.88-11.34,5.88-8,0-12.8-5.33-12.8-13.83V43.74Z"/><path class="cls-1" d="M203.49,48.65A13.85,13.85,0,0,1,215,43a13.27,13.27,0,0,1,11,5h.14V24.3h15.84V80.67h-15.7V76.1h-.14c-3.25,3.6-6,5.4-11,5.4a14.08,14.08,0,0,1-11.69-5.67,21.69,21.69,0,0,1-4.36-13.63A21.24,21.24,0,0,1,203.49,48.65Zm17,19.78a6.15,6.15,0,0,0,6.09-6.3,6.09,6.09,0,1,0-6.09,6.3Z"/><path class="cls-1" d="M330.93,32A38.57,38.57,0,0,0,305.78,3.34,9.66,9.66,0,0,0,293,12.49v1.76c0,3.64,2.73,7.79,6.15,9A17.38,17.38,0,0,1,310.36,36.2l2.8,13.6a2.51,2.51,0,0,0,2.25,2l13.84,1.11a5.16,5.16,0,0,1,4.26,4.7,4.39,4.39,0,0,1-4.63,4.64H291.24a9.79,9.79,0,0,1-9.76-9.77V42.9a9.67,9.67,0,0,0-9.67-9.67h-1.66a9.67,9.67,0,0,0-9.67,9.67v9.57a30.85,30.85,0,0,0,30.76,30.76h36.87c11.86,0,22.58-7.76,25.57-19.24C357.84,48.06,345.75,33.15,330.93,32Z"/><rect class="cls-1" x="258.29" width="24.65" height="24.65" rx="11.01"/></g></g></svg>