<?xml version="1.0" encoding="utf-8"?>
<!-- Generator: Adobe Illustrator 23.0.1, SVG Export Plug-In . SVG Version: 6.00 Build 0)  -->
<svg version="1.1" id="a706cf1c-1654-439b-8fcf-310eb7aa0e00"
	 xmlns="http://www.w3.org/2000/svg" xmlns:xlink="http://www.w3.org/1999/xlink" x="0px" y="0px" viewBox="0 0 1120.6 539.9"
	 style="enable-background:new 0 0 1120.6 539.9;" xml:space="preserve">
<style type="text/css">
	.st0{enable-background:new    ;}
	.st1{fill:#FF6584;}
	.st2{fill:#F2F2F2;}
	.st3{fill:#3F3D56;}
	.st4{fill:#2F2E41;}
	.st5{fill:#FFFFFF;}
	.st6{fill:#0380C1;}
</style>
<g class="st0">
	<path d="M320.8,397.2V177.5h13.5l-91,130.8V291H427v51.2h-232v-49.1l138-197.2H386v301.4H320.8z"/>
	<path d="M561.6,401c-36.4,0-64.3-13.2-83.6-39.6c-19.3-26.4-29-64.8-29-115.3c0-49.7,9.7-87.6,29-113.9
		c19.3-26.2,47.2-39.4,83.6-39.4c36.4,0,64.3,13.1,83.6,39.4c19.3,26.2,29,64.2,29,113.9c0,50.2-9.7,88.6-29,115.1
		C625.9,387.8,598,401,561.6,401z M561.6,350.2c16.6,0,28.8-8.2,36.4-24.5c7.6-16.4,11.4-42.9,11.4-79.6c0-35.8-3.8-61.9-11.4-78.3
		c-7.6-16.4-19.8-24.6-36.4-24.6c-16.7,0-28.8,8.2-36.4,24.6c-7.6,16.4-11.4,42.5-11.4,78.3c0,36.7,3.8,63.2,11.4,79.6
		C532.9,342.1,545,350.2,561.6,350.2z"/>
	<path d="M828.7,397.2V177.5h13.5l-91,130.8V291H935v51.2H703v-49.1L841,95.9h52.9v301.4H828.7z"/>
</g>
<title>not found</title>
<g>
	<circle class="st1" cx="426" cy="186.7" r="25"/>
	<path class="st2" d="M547.5,280.4c0,58.9-35,79.5-78.2,79.5S391,339.3,391,280.4s78.2-133.9,78.2-133.9S547.5,221.5,547.5,280.4z"
		/>
	<polygon class="st3" points="466.4,350.9 467.2,301.5 500.5,240.6 467.3,293.8 467.7,271.7 490.7,227.6 467.8,265.8 467.8,265.8 
		468.4,225.9 493,190.8 468.5,219.7 468.9,146.5 466.4,243.4 466.6,239.4 441.6,201.1 466.2,247 463.8,291.5 463.8,290.4 
		434.9,250.1 463.7,294.5 463.4,300.1 463.4,300.2 463.4,300.6 457.5,413.6 465.4,413.6 466.3,355.3 495,310.9 	"/>
	<path class="st2" d="M780.3,304.5c0,48.2-28.7,65-64,65c-35.3,0-64-16.8-64-65s64-109.6,64-109.6S780.3,256.3,780.3,304.5z"/>
	<polygon class="st3" points="713.9,362.2 714.5,321.9 741.8,271.9 714.6,315.6 714.9,297.4 733.7,261.3 715,292.6 715,292.6 
		715.6,260 735.7,231.2 715.6,254.8 715.9,195 713.9,274.2 714.1,270.9 693.5,239.6 713.7,277.2 711.8,313.6 711.8,312.7 
		688.2,279.7 711.7,316.1 711.4,320.6 711.4,320.7 711.4,321.1 706.6,413.6 713.1,413.6 713.9,365.8 737.3,329.5 	"/>
	<ellipse class="st3" cx="559.4" cy="412" rx="216.4" ry="10.9"/>
	<ellipse class="st3" cx="691.2" cy="430.1" rx="37.1" ry="1.9"/>
	<ellipse class="st3" cx="557.1" cy="448.2" rx="37.1" ry="1.9"/>
	<ellipse class="st3" cx="455.4" cy="433" rx="84.7" ry="4.3"/>
	<circle class="st4" cx="380.9" cy="367.4" r="30.8"/>
	
		<rect x="362.8" y="395.3" transform="matrix(1.178263e-02 -0.9999 0.9999 1.178263e-02 -33.1103 766.4146)" class="st4" width="16.7" height="9.4"/>
	
		<rect x="381.5" y="395.5" transform="matrix(1.178263e-02 -0.9999 0.9999 1.178263e-02 -14.8093 785.33)" class="st4" width="16.7" height="9.4"/>
	
		<ellipse transform="matrix(1.178258e-02 -0.9999 0.9999 1.178258e-02 -38.8264 777.8971)" class="st4" cx="374.1" cy="408.6" rx="2.9" ry="7.8"/>
	
		<ellipse transform="matrix(1.178258e-02 -0.9999 0.9999 1.178258e-02 -20.104 796.4688)" class="st4" cx="392.9" cy="408.4" rx="2.9" ry="7.8"/>
	<circle class="st5" cx="381.8" cy="359.6" r="10.5"/>
	<circle class="st3" cx="381.8" cy="359.6" r="3.5"/>
	<path class="st6" d="M351.3,338.5c-2.4-11.2,5.7-22.3,18-25c12.3-2.6,24.3,4.4,26.6,15.5c2.4,11.2-5.9,15.2-18.2,17.8
		C365.5,349.4,353.7,349.6,351.3,338.5z"/>
	<path class="st6" d="M427.9,384.7c0,21.5-12.8,29-28.6,29c-0.4,0-0.7,0-1.1,0c-0.7,0-1.4-0.1-2.1-0.1c-14.2-1-25.3-8.9-25.3-28.9
		c0-20.7,26.4-46.8,28.4-48.7l0,0c0.1-0.1,0.1-0.1,0.1-0.1S427.9,363.2,427.9,384.7z"/>
	<path class="st3" d="M398.3,410.4l10.4-14.6L398.3,412v1.6c-0.7,0-1.4-0.1-2.1-0.1l1.1-21.5v-0.1l0,0l0.1-2l-10.5-16.2l10.5,14.7
		v0.4l0.9-16.2l-8.9-16.7l9.1,13.9l0.9-33.7v-0.1v0.1l-0.1,26.5l8.9-10.5l-8.9,12.8l-0.2,14.5l8.4-14l-8.4,16.1l-0.1,8.1l12.1-19.4
		l-12.2,22.3L398.3,410.4z"/>
	<circle class="st4" cx="621" cy="367.2" r="30.8"/>
	
		<rect x="617" y="392.6" transform="matrix(0.9559 -0.2938 0.2938 0.9559 -90.376 200.3363)" class="st4" width="9.4" height="16.7"/>
	
		<rect x="634.9" y="387.1" transform="matrix(0.9559 -0.2938 0.2938 0.9559 -87.9678 205.3486)" class="st4" width="9.4" height="16.7"/>
	
		<ellipse transform="matrix(0.9559 -0.2938 0.2938 0.9559 -92.281 202.2685)" class="st4" cx="627.1" cy="408.3" rx="7.8" ry="2.9"/>
	<ellipse transform="matrix(0.9559 -0.2938 0.2938 0.9559 -89.7677 207.2441)" class="st4" cx="645" cy="402.4" rx="7.8" ry="2.9"/>
	<circle class="st5" cx="619.5" cy="359.4" r="10.5"/>
	<circle class="st3" cx="619.5" cy="359.4" r="3.5"/>
	<path class="st6" d="M584,348.6c-5.7-9.9-1.4-23,9.6-29.3c10.9-6.2,24.4-3.2,30.1,6.7c5.7,9.9-0.9,16.2-11.9,22.5
		C600.9,354.6,589.7,358.4,584,348.6z"/>
	<path class="st6" d="M566.1,380.8c0,19.8-11.7,26.6-26.2,26.6c-0.4,0-0.6,0-1,0c-0.6,0-1.4-0.1-2-0.1c-13-0.9-23.2-8.2-23.2-26.5
		c0-19,24.3-42.9,26-44.7l0,0c0.1-0.1,0.1-0.1,0.1-0.1S566.1,361,566.1,380.8z"/>
	<path class="st3" d="M538.9,404.3l9.6-13.4l-9.6,14.9v1.5c-0.6,0-1.4-0.1-2-0.1l1-19.8v-0.1l0,0l0.1-1.9l-9.6-14.9l9.7,13.5v0.4
		l0.8-14.9l-8.2-15.5l8.4,12.7l0.8-30.9v-0.1v0.1l-0.1,24.4l8.2-9.7l-8.2,11.7l-0.2,13.4L547,363l-7.7,14.7l-0.1,7.4l11.1-17.8
		l-11.2,20.4L538.9,404.3z"/>
	<path class="st6" d="M669.1,389c0,21.5-12.8,29-28.6,29c-0.4,0-0.7,0-1.1,0c-0.7,0-1.4-0.1-2.1-0.1C623,416.9,612,409,612,389
		c0-20.7,26.4-46.8,28.4-48.7l0,0c0.1-0.1,0.1-0.1,0.1-0.1S669.1,367.4,669.1,389z"/>
	<path class="st3" d="M639.5,414.7l10.4-14.6l-10.5,16.2v1.6c-0.7,0-1.4-0.1-2.1-0.1l1.1-21.5v-0.1l0,0l0.1-2L628,377.9l10.5,14.7
		v0.4l0.9-16.2l-8.9-16.7l9.1,13.9l0.9-33.7V340v0.1l-0.1,26.5l8.9-10.5l-8.9,12.8l-0.2,14.5l8.4-14l-8.4,16.1l-0.1,8.1l12.1-19.4
		l-12.2,22.3L639.5,414.7z"/>
	<ellipse transform="matrix(0.4285 -0.9035 0.9035 0.4285 5.5844 766.8492)" class="st4" cx="609" cy="379" rx="4.9" ry="15.4"/>
	<ellipse transform="matrix(0.372 -0.9282 0.9282 0.372 -116.7095 581.5447)" class="st4" cx="371.4" cy="377" rx="4.9" ry="15.4"/>
</g>
</svg>
