<?xml version="1.0" encoding="utf-8"?>
<!-- Generator: Adobe Illustrator 23.0.1, SVG Export Plug-In . SVG Version: 6.00 Build 0)  -->
<svg version="1.1" id="ae636c83-9a69-4d8f-8683-8786b472330f"
	 xmlns="http://www.w3.org/2000/svg" xmlns:xlink="http://www.w3.org/1999/xlink" x="0px" y="0px" viewBox="0 0 1251.5 634.3"
	 style="enable-background:new 0 0 1251.5 634.3;" xml:space="preserve">
<style type="text/css">
	.st0{fill:#E6E6E6;}
	.st1{fill:#3F3D56;}
	.st2{fill:#0380C1;}
	.st3{fill:#2F2E41;}
	.st4{fill:#FFFFFF;}
</style>
<ellipse class="st0" cx="844.1" cy="499" rx="34" ry="2.6"/>
<ellipse class="st0" cx="678.3" cy="499" rx="34" ry="2.6"/>
<ellipse class="st0" cx="411.4" cy="491.5" rx="34" ry="2.6"/>
<path class="st0" d="M829.2,467.4H597.9c-2,0-3.6-1.6-3.6-3.6V241.7c0-2,1.6-3.6,3.6-3.6h231.4c2,0,3.6,1.6,3.6,3.6v222.1
	C832.9,465.8,831.3,467.4,829.2,467.4z M597.9,239.5c-1.2,0-2.2,1-2.2,2.2v222.1c0,1.2,1,2.2,2.2,2.2h231.4c1.2,0,2.2-1,2.2-2.2
	V241.7c0-1.2-1-2.2-2.2-2.2H597.9z"/>
<path class="st0" d="M611.2,257.5c-0.8,0-1.5,0.7-1.5,1.5v60.3c0,0.8,0.7,1.5,1.5,1.5h60.3c0.8,0,1.5-0.7,1.5-1.5v-60.3
	c0-0.8-0.7-1.5-1.5-1.5H611.2z"/>
<path id="b9d15c13-74bb-46fd-a6fd-5a7002be597d" class="st0" d="M706,301.1c-1,0-1.7,0.8-1.7,1.8c0,1,0.8,1.7,1.7,1.7h83.1
	c1,0,1.8-0.8,1.8-1.7c0-1-0.8-1.8-1.7-1.8c0,0,0,0,0,0c0,0,0,0-0.1,0H706z"/>
<path id="fb98932a-aea9-43a1-946e-96a095a0002f" class="st0" d="M706,285c-1,0-1.7,0.8-1.7,1.8c0,1,0.8,1.7,1.7,1.7h23.8
	c1,0,1.8-0.8,1.8-1.7c0-1-0.8-1.8-1.7-1.8c0,0,0,0,0,0c0,0,0,0-0.1,0H706z"/>
<path id="a8382d7c-76a2-4f66-b41d-b5784413a475" class="st0" d="M706,317.6c-1,0-1.7,0.8-1.7,1.8c0,1,0.8,1.7,1.7,1.7h83.1
	c1,0,1.8-0.8,1.8-1.7c0-1-0.8-1.8-1.7-1.8c0,0,0,0-0.1,0H706z"/>
<path id="a69b3c31-ebec-4776-89b9-9c88b713759e" class="st0" d="M804.8,381.3H690.7c-2.2,0-4-1.3-4-2.9v-24.8c0-1.6,1.8-2.9,4-2.9
	h114.1c2.2,0,4,1.3,4,2.9v24.8C808.9,380,807.1,381.3,804.8,381.3z"/>
<path id="ac481be8-039b-4a38-bb10-2d9a81406e5c" class="st0" d="M727.6,441.5H613.4c-2.2,0-4-1.3-4-2.9v-24.8c0-1.6,1.8-2.9,4-2.9
	h114.1c2.2,0,4,1.3,4,2.9v24.8C731.6,440.3,729.8,441.5,727.6,441.5z"/>
<path id="e05581d0-cd6a-412e-af3c-57495fab8d46" class="st1" d="M693.1,455.2H579c-2.2,0-4-1.3-4-2.9v-24.8c0-1.6,1.8-2.9,4-2.9
	h114.1c2.2,0,4,1.3,4,2.9v24.8C697.2,453.9,695.3,455.2,693.1,455.2z M579,425.8c-1.3,0-2.4,0.8-2.4,1.7v24.8c0,0.9,1.1,1.7,2.4,1.7
	h114.1c1.3,0,2.4-0.8,2.4-1.7v-24.8c0-0.9-1.1-1.7-2.4-1.7L579,425.8z"/>
<circle class="st2" cx="734.2" cy="378" r="9.2"/>
<circle class="st2" cx="595.7" cy="439.7" r="9.2"/>
<path id="f4993879-8a0d-4ea4-907e-e549be7081a0" class="st1" d="M754.2,371.4c-1,0-1.7,0.8-1.7,1.8c0,1,0.8,1.7,1.7,1.7h66
	c1,0,1.8-0.8,1.8-1.7c0-1-0.8-1.8-1.7-1.8c0,0,0,0-0.1,0H754.2z"/>
<path id="a649136c-96b9-48c7-9686-75389104c34a" class="st1" d="M754.2,381.1c-1,0-1.7,0.8-1.7,1.8c0,1,0.8,1.7,1.7,1.7h66
	c1,0,1.8-0.8,1.8-1.7c0-1-0.8-1.8-1.7-1.8c0,0,0,0-0.1,0H754.2z"/>
<path id="bf4cb793-0df2-4753-9628-c376ea3545d1" class="st1" d="M615.6,433.1c-1,0-1.7,0.8-1.7,1.8c0,1,0.8,1.7,1.7,1.7h66
	c1,0,1.8-0.8,1.8-1.7c0-1-0.8-1.8-1.7-1.8c0,0,0,0-0.1,0H615.6z"/>
<path id="bf2170fd-291c-4664-b596-01f8e04656d6" class="st1" d="M615.6,442.8c-1,0-1.7,0.8-1.7,1.8c0,1,0.8,1.7,1.7,1.7h66
	c1,0,1.8-0.8,1.8-1.7c0-1-0.8-1.8-1.7-1.8c0,0,0,0-0.1,0H615.6z"/>
<circle class="st3" cx="845" cy="469.4" r="20.9"/>
<rect x="848.2" y="485.8" class="st3" width="6.4" height="11.4"/>
<rect x="835.5" y="485.8" class="st3" width="6.4" height="11.4"/>
<ellipse class="st3" cx="849.3" cy="497.3" rx="5.3" ry="2"/>
<ellipse class="st3" cx="836.5" cy="497" rx="5.3" ry="2"/>
<circle class="st4" cx="844.5" cy="464.1" r="7.2"/>
<circle class="st1" cx="844.5" cy="464.1" r="2.4"/>
<path class="st0" d="M865.3,449.9c1.7-7.6-3.7-15.2-12.1-17.1c-8.4-1.9-16.5,2.8-18.2,10.3c-1.7,7.6,3.8,10.4,12.2,12.2
	C855.6,457.2,863.6,457.5,865.3,449.9z"/>
<path class="st3" d="M622.1,330.4c0,3.2-0.7,6.4-2.2,9.3c-0.2,0.3-0.3,0.7-0.5,1h-36.5c-0.2-0.3-0.3-0.6-0.5-1
	c-5.1-10.4-0.9-22.9,9.5-28s22.9-0.9,28,9.5C621.3,324,622.1,327.1,622.1,330.4L622.1,330.4z"/>
<circle class="st4" cx="601.7" cy="325.1" r="7.2"/>
<circle class="st1" cx="599" cy="322.8" r="2.4"/>
<path class="st2" d="M580.8,310.9c-1.7-7.6,3.7-15.2,12.1-17.1s16.5,2.8,18.2,10.3s-3.8,10.4-12.2,12.2S582.5,318.5,580.8,310.9z"/>
<path class="st1" d="M631.2,275.4h-60.3c-1.3,0-2.4,1.1-2.4,2.4v60.3c0,1.3,1.1,2.4,2.4,2.4h60.3c1.3,0,2.4-1.1,2.4-2.4v-60.3
	C633.6,276.5,632.5,275.4,631.2,275.4z M632.6,338.1c0,0.8-0.7,1.5-1.5,1.5h-60.3c-0.8,0-1.5-0.7-1.5-1.5v-60.3
	c0-0.8,0.7-1.5,1.5-1.5h60.3c0.8,0,1.5,0.7,1.5,1.5V338.1z"/>
<ellipse transform="matrix(0.357 -0.9341 0.9341 0.357 22.7282 940.1168)" class="st3" cx="694.3" cy="453.5" rx="10.5" ry="3.3"/>
<ellipse transform="matrix(0.1602 -0.9871 0.9871 0.1602 103.5001 1060.364)" class="st3" cx="674.9" cy="469.4" rx="20.9" ry="20.9"/>
<rect x="665.4" y="485.8" class="st3" width="6.4" height="11.4"/>
<rect x="678.1" y="485.8" class="st3" width="6.4" height="11.4"/>
<ellipse class="st3" cx="670.7" cy="497.3" rx="5.3" ry="2"/>
<ellipse class="st3" cx="683.4" cy="497" rx="5.3" ry="2"/>
<path class="st2" d="M654.6,449.9c-1.7-7.6,3.7-15.2,12.1-17.1c8.4-1.9,16.5,2.8,18.2,10.3s-3.8,10.4-12.2,12.2
	C664.3,457.2,656.3,457.5,654.6,449.9z"/>
<ellipse transform="matrix(0.4285 -0.9035 0.9035 0.4285 -43.0873 851.1638)" class="st3" cx="651.3" cy="459.6" rx="3.3" ry="10.5"/>
<circle class="st3" cx="851.3" cy="405.5" r="20.4"/>
<rect x="854.5" y="421.5" transform="matrix(1 -4.648493e-03 4.648493e-03 1 -1.9761 3.9914)" class="st3" width="6.2" height="11.1"/>
<rect x="842.1" y="421.6" transform="matrix(1 -4.648493e-03 4.648493e-03 1 -1.9765 3.9337)" class="st3" width="6.2" height="11.1"/>
<ellipse transform="matrix(0.8637 -0.504 0.504 0.8637 -103.6436 484.5236)" class="st3" cx="844" cy="433.9" rx="5.2" ry="1.9"/>
<ellipse transform="matrix(0.8637 -0.504 0.504 0.8637 -101.9591 490.6394)" class="st3" cx="856.1" cy="433.8" rx="5.2" ry="1.9"/>
<circle class="st4" cx="850.8" cy="400.4" r="7"/>
<circle class="st1" cx="848.4" cy="397.4" r="2.3"/>
<path class="st2" d="M871.1,386.5c1.6-7.4-3.7-14.8-11.9-16.6s-16.1,2.8-17.7,10.2c-1.6,7.4,3.8,10.1,12,11.9
	C861.6,393.7,869.4,393.9,871.1,386.5z"/>
<ellipse transform="matrix(0.3892 -0.9212 0.9212 0.3892 142.9312 1005.96)" class="st3" cx="830" cy="395.2" rx="3.2" ry="10.2"/>
<ellipse transform="matrix(0.3892 -0.9212 0.9212 0.3892 152.8253 1054.7313)" class="st3" cx="871.7" cy="412.1" rx="3.2" ry="10.2"/>
<path class="st4" d="M855.5,414.4c0,2.6-2,4.7-4.6,4.7c-2.6,0-4.7-2-4.7-4.6c0,0,0,0,0,0l0,0c0-2.6,2.1-3.1,4.6-3.1
	C853.4,411.3,855.5,411.9,855.5,414.4z"/>
<path id="acccf4df-3a09-4c7b-a8c8-af469fe66e6d" class="st1" d="M834.5,393.4H720.4c-2.2,0-4-1.3-4-2.9v-24.8c0-1.6,1.8-2.9,4-2.9
	h114.1c2.2,0,4,1.3,4,2.9v24.8C838.6,392.1,836.8,393.4,834.5,393.4z M720.4,364c-1.3,0-2.4,0.8-2.4,1.7v24.8c0,0.9,1.1,1.7,2.4,1.7
	h114.1c1.3,0,2.4-0.8,2.4-1.7v-24.8c0-0.9-1.1-1.7-2.4-1.7L720.4,364z"/>
<g>
	<path class="st2" d="M413.3,489.2l-43.1-30.6l21.8-30.7l8.7,6.2l-14,19.7l8.1,5.8L408,441l8.7,6.2l-13.1,18.4l8.8,6.3l14-19.7
		l8.7,6.2L413.3,489.2z"/>
	<path class="st2" d="M439.4,452.4l-43.1-30.6l6.3-8.9l44.2,9.2l-2.7,3.8l-23.3-38.6l6.3-8.8l43.1,30.6l-7,9.9l-25.9-18.3l2.3-1.8
		l17.8,28.4l-5.1,7.2l-32.8-7.3l1.1-2.9l25.9,18.4L439.4,452.4z"/>
	<path class="st2" d="M488.3,383.5l-43.1-30.6l14.9-20.9c3.2-4.5,6.7-7.3,10.7-8.6c3.9-1.3,7.6-0.7,11,1.8c2.3,1.7,3.9,3.8,4.7,6.3
		c0.8,2.6,0.7,5.3-0.3,8.2l-0.5-0.3c2.7-2.3,5.5-3.6,8.4-3.8c2.9-0.2,5.8,0.7,8.6,2.7c3.6,2.5,5.4,5.9,5.6,10.2
		c0.2,4.3-1.4,8.8-4.8,13.6L488.3,383.5z M470,353.8l5.6-7.9c1.5-2.1,2.3-3.9,2.3-5.3c0-1.4-0.6-2.6-2.1-3.6
		c-1.5-1.1-2.9-1.3-4.3-0.8c-1.4,0.5-2.8,1.8-4.2,3.9l-5.6,7.9L470,353.8z M487.6,366.3l6.4-9.1c1.5-2.2,2.3-4,2.3-5.4
		c0-1.4-0.8-2.7-2.4-3.9c-1.6-1.1-3.1-1.5-4.5-1.1c-1.4,0.4-2.8,1.8-4.4,4l-6.4,9.1L487.6,366.3z"/>
	<path class="st2" d="M518.5,341l-43.1-30.6l14.2-20c3.7-5.2,7.6-8.4,11.7-9.4c4.1-1,8.2,0,12.3,2.9c3.9,2.7,6,6.3,6.5,10.8
		c0.5,4.4-1,9.1-4.5,13.9l2.6-6c1-1.5,2.4-2.5,4.2-3.1c1.8-0.6,3.8-0.6,6.1,0l16.4,4l-8.5,12l-18.3-4.6c-1.1-0.3-2.2-0.1-3.2,0.5
		c-1,0.6-1.8,1.4-2.5,2.3l-2.9,4.1l16.8,11.9L518.5,341z M501.1,312l5.1-7.1c1.7-2.5,2.6-4.5,2.6-6.1c0-1.6-0.8-3-2.3-4.1
		c-1.7-1.2-3.2-1.5-4.7-0.9c-1.5,0.6-3.1,2.1-4.8,4.5l-5.1,7.1L501.1,312z"/>
	<path class="st2" d="M549.1,297.8L506,267.2l21.8-30.7l8.7,6.2l-14,19.7l8.1,5.8l13.1-18.4l8.7,6.2l-13.1,18.4l8.8,6.3l14-19.7
		l8.7,6.2L549.1,297.8z"/>
	<path class="st2" d="M585.6,246.3l-57-11l8.4-11.8l42.5,9.1l-2.2,3.1l-22.5-37.3l8.1-11.4l29.2,50.2L585.6,246.3z"/>
	<path class="st2" d="M607.7,215.2l-43.1-30.6l21.8-30.7l8.7,6.2l-14,19.7l8.1,5.8l13.1-18.4l8.7,6.2L598,191.7l8.8,6.3l14-19.7
		l8.7,6.2L607.7,215.2z"/>
	<path class="st2" d="M619.5,166.9l-30.7-16.6l9.6-13.5l25.7,23.4L619.5,166.9z M621.5,172l8.1-11.4l11.3,8l-8.1,11.4L621.5,172z"/>
</g>
</svg>
